<!-- SVG placeholder for the Modern CV template -->
<svg xmlns="http://www.w3.org/2000/svg" width="400" height="600" viewBox="0 0 400 600">
  <rect width="400" height="600" fill="#f8f9fa"/>
  <rect width="400" height="100" fill="#20c997"/>
  
  <circle cx="60" cy="150" r="40" fill="#e9ecef" stroke="#20c997" stroke-width="4"/>
  <rect x="120" y="120" width="240" height="20" fill="#212529"/>
  <rect x="120" y="150" width="160" height="12" fill="#495057"/>
  
  <rect x="30" y="220" width="340" height="1" fill="#dee2e6"/>
  
  <rect x="30" y="240" width="80" height="15" fill="#20c997"/>
  <rect x="30" y="265" width="340" height="8" fill="#212529"/>
  <rect x="30" y="280" width="340" height="8" fill="#212529"/>
  <rect x="30" y="295" width="300" height="8" fill="#212529"/>
  
  <rect x="30" y="325" width="340" height="1" fill="#dee2e6"/>
  
  <rect x="30" y="345" width="100" height="15" fill="#20c997"/>
  <rect x="30" y="370" width="160" height="12" fill="#212529"/>
  <rect x="30" y="390" width="340" height="8" fill="#6c757d"/>
  <rect x="30" y="405" width="340" height="8" fill="#6c757d"/>
  
  <rect x="30" y="425" width="160" height="12" fill="#212529"/>
  <rect x="30" y="445" width="340" height="8" fill="#6c757d"/>
  <rect x="30" y="460" width="340" height="8" fill="#6c757d"/>
  
  <rect x="30" y="490" width="340" height="1" fill="#dee2e6"/>
  
  <rect x="30" y="510" width="80" height="15" fill="#20c997"/>
  <rect x="30" y="535" width="60" height="8" fill="#212529"/>
  <rect x="100" y="535" width="60" height="8" fill="#212529"/>
  <rect x="170" y="535" width="60" height="8" fill="#212529"/>
  <rect x="240" y="535" width="60" height="8" fill="#212529"/>
  <rect x="310" y="535" width="60" height="8" fill="#212529"/>
  
  <text x="200" y="580" fill="#20c997" font-family="Arial" font-size="12" text-anchor="middle">Modern Template</text>
</svg>
